<svg width="211" height="217" viewBox="0 0 211 217" fill="none" xmlns="http://www.w3.org/2000/svg">
<path d="M163.585 40.9883L125.547 6.47824L125.263 6.22008L125.501 5.91781C126.807 4.25727 128.169 2.63267 129.594 1.06147L129.949 0.669032L130.243 1.10983C140.109 15.9026 154.149 26.8845 170.061 33.1327L170.65 33.3637L170.201 33.8106C167.981 36.015 165.976 38.406 164.199 40.9202L163.93 41.3015L163.585 40.9883ZM156.272 56.927L102.878 78.0807L102.344 78.2921L102.313 77.7196C102.125 74.145 102.126 70.5911 102.315 67.0589L102.33 66.7916L102.58 66.6953L145.682 50.1566L115.238 22.0509L115.003 21.8335L115.156 21.5512C116.825 18.4636 118.63 15.4576 120.619 12.554L120.887 12.1626L121.237 12.4818L159.805 47.6458L160.036 47.8564L159.896 48.1351C158.529 50.8727 157.406 53.7266 156.515 56.6631L156.457 56.8542L156.272 56.927ZM94.4464 210.135C91.5883 214.158 86.6656 214.872 83.3846 215.576C80.0114 216.299 75.8939 215.867 70.5289 215.131C68.6995 214.881 67.0163 214.77 65.4023 214.654C63.7931 214.538 62.2485 214.417 60.7277 214.142C59.9128 213.994 59.1303 213.533 58.3605 212.903C57.588 212.271 56.7953 211.44 55.9635 210.512C54.0367 208.361 53.5735 205.959 53.6425 203.962C53.7479 200.912 54.7274 198.168 55.9669 195.517C56.5862 194.192 57.276 192.882 57.955 191.57C58.6358 190.255 59.3084 188.935 59.9059 187.576C64.7715 176.504 65.2896 168.659 66.3124 164.766C67.1239 161.677 68.8621 159.447 70.6265 156.934C73.3431 153.064 75.8203 150.121 78.4971 146.73C79.3677 145.627 79.7872 143.779 80.0246 141.621C80.1419 140.555 80.2132 139.437 80.2802 138.329C80.3469 137.225 80.4089 136.128 80.5099 135.121C80.7287 132.938 81.8586 130.708 83.0817 128.66C83.6946 127.633 84.3454 126.629 84.9255 125.699C85.5104 124.761 86.0262 123.895 86.3902 123.113C86.4578 122.968 86.4541 122.793 86.2904 122.537C86.1192 122.27 85.8012 121.968 85.349 121.644C84.45 121 83.1407 120.355 81.8085 119.774C81.2377 119.524 80.1961 119.285 78.6944 119.047C77.206 118.811 75.306 118.584 73.046 118.344C68.5056 117.862 62.6133 117.343 55.6839 116.621C44.7521 115.482 39.1103 113.609 32.9004 111.799C29.9736 110.947 27.5126 109.97 25.5659 109.144C23.8415 108.413 22.5641 107.819 21.6993 107.513L21.3533 107.4L21.3447 107.397L21.3348 107.394C18.9243 106.555 13.3501 103.56 6.29113 97.6343L6.262 97.6105L6.23801 97.5815C3.3198 94.0679 1.88807 89.6453 0.438749 85.187L0.415192 85.1163L0.418961 85.0426C0.56664 81.4801 1.51689 75.8864 3.89163 70.6461C6.2658 65.407 10.0897 60.4674 16.013 58.319L16.0524 58.3044L16.0944 58.2983C16.7314 58.2068 17.4942 58.2982 18.3481 58.5187C19.2071 58.7405 20.1873 59.1013 21.2703 59.5758C23.4361 60.5247 26.0503 61.944 28.9912 63.6685C34.8662 67.1135 42.1228 71.8227 49.7775 76.4908C57.4465 81.1676 65.5399 85.8197 73.1481 89.1899C80.769 92.5656 87.8452 94.6278 93.4961 94.1884L93.7696 94.168L93.8948 94.4108L112.68 130.841L112.783 131.041L112.671 131.236C110.277 135.407 108.374 141.282 106.965 147.02C105.558 152.751 104.652 158.31 104.236 161.825L104.235 161.839L104.232 161.853C102.908 168.845 99.8404 186.639 98.1606 201.899C98.1773 202.225 98.0941 202.679 97.952 203.189C97.7976 203.743 97.5596 204.413 97.245 205.153C96.6155 206.633 95.6697 208.413 94.4464 210.135ZM136.073 48.6594L103.573 59.4815L102.95 59.6882L103.033 59.0379C104.427 48.0807 107.517 37.4564 112.152 27.5273L112.384 27.0291L112.798 27.3917L136.215 47.9585L136.755 48.4328L136.073 48.6594ZM114.802 37.5726C113.242 41.7345 111.985 45.9985 111.003 50.3321L124.296 45.9062L114.802 37.5726ZM128.123 142.132C125.86 139.52 123.728 136.793 121.722 133.934L121.47 133.575L121.843 133.345L155.799 112.445L106.145 100.293L105.91 100.236L105.846 100.002C104.587 95.4347 103.676 90.8414 103.098 86.2304L103.058 85.9132L103.356 85.7955L153.964 65.8784L154.604 65.6264L154.525 66.3098C154.155 69.5026 154.059 72.7384 154.288 75.9946L154.31 76.29L154.035 76.404L116.64 91.9444L164.29 104.261L164.435 104.298L164.522 104.419C167.276 108.245 170.495 111.623 174.04 114.551L174.491 114.925L173.988 115.224L128.646 142.216L128.349 142.393L128.123 142.132ZM159.224 96.8867L133.46 90.814L132.218 90.5204L133.397 90.0306L154.384 81.31L154.862 81.1108L154.949 81.6222C155.621 85.5647 156.749 89.5154 158.35 93.3685C158.762 94.36 159.209 95.3371 159.688 96.3007L160.079 97.0885L159.224 96.8867ZM118.51 129.084C115.401 124.148 112.671 118.875 110.359 113.311C109.744 111.83 109.169 110.351 108.645 108.849L108.412 108.182L109.108 108.307L142.236 114.261L143.307 114.453L142.378 115.02L119.073 129.217L118.727 129.428L118.51 129.084ZM188.017 176.955C184.472 176.253 180.972 175.372 177.51 174.295L177.184 174.194L177.222 173.855L181.45 136.527L145.547 157.916L145.311 158.058L145.089 157.892C141.526 155.223 138.093 152.339 134.864 149.229L134.476 148.856L134.938 148.579L181.995 120.216L182.201 120.093L182.41 120.209C185.876 122.142 189.55 123.673 193.343 124.779L193.672 124.875L193.639 125.217L188.507 176.591L188.462 177.043L188.017 176.955ZM203.677 178.909C201.212 178.795 198.766 178.574 196.318 178.296L195.907 178.249L195.955 177.839L201.823 126.992L201.87 126.579L202.283 126.63C204.695 126.93 207.152 127.052 209.622 127.013L210.27 127.002L210.006 127.594C203.015 143.241 200.713 160.934 204.101 178.419L204.201 178.933L203.677 178.909ZM172.571 172.636C164.85 169.857 157.456 166.184 150.55 161.669L149.997 161.307L150.566 160.969L175.409 146.172L176.124 145.746L176.031 146.573L173.121 172.294L173.063 172.813L172.571 172.636ZM168.414 157.726L162.429 161.284C164.164 162.19 165.931 163.042 167.717 163.848L168.414 157.726Z" stroke="#DEA15E" stroke-width="0.825447" stroke-linecap="round"/>
</svg>
