<svg width="700" height="718" viewBox="0 0 700 718" fill="none" xmlns="http://www.w3.org/2000/svg">
<path d="M544.588 133.254L417.685 18.1196L417.34 17.8068L417.628 17.4407C421.974 11.915 426.506 6.51091 431.245 1.2857L431.675 0.810863L432.031 1.34399C465.051 50.8511 512.036 87.6042 565.285 108.514L565.998 108.794L565.454 109.334C558.011 116.726 551.289 124.744 545.333 133.172L545.007 133.634L544.588 133.254ZM519.277 186.265L341.141 256.841L340.494 257.097L340.457 256.402C339.831 244.507 339.833 232.683 340.463 220.929L340.48 220.605L340.783 220.489L485.902 164.805L383.296 70.0785L383.011 69.8155L383.195 69.4731C388.753 59.1946 394.759 49.1925 401.376 39.5338L401.701 39.0598L402.126 39.4462L530.797 156.764L531.077 157.019L530.908 157.356C526.324 166.536 522.56 176.104 519.572 185.946L519.502 186.176L519.277 186.265ZM312.62 697.718C303.324 710.803 287.311 713.147 276.244 715.519C265.167 717.894 251.587 716.484 233.658 714.025C227.52 713.184 221.873 712.814 216.496 712.427C211.125 712.041 206.019 711.639 200.997 710.729C198.489 710.275 196.015 708.84 193.496 706.779C190.974 704.715 188.366 701.989 185.596 698.896C179.355 691.93 177.854 684.161 178.079 677.66C178.424 667.658 181.637 658.626 185.752 649.826C187.808 645.427 190.096 641.075 192.366 636.691C194.637 632.302 196.893 627.877 198.899 623.313C215.166 586.298 216.952 559.898 220.319 547.083C222.977 536.964 228.66 529.674 234.581 521.237C243.626 508.352 251.861 498.57 260.811 487.232C263.887 483.335 265.298 476.934 266.089 469.739C266.483 466.156 266.722 462.407 266.945 458.712C267.168 455.023 267.377 451.385 267.711 448.046C268.421 440.97 272.095 433.674 276.17 426.849C278.21 423.434 280.367 420.108 282.314 416.987C284.267 413.857 286.011 410.926 287.25 408.265C287.642 407.424 287.511 406.517 286.86 405.5C286.2 404.47 285.037 403.387 283.495 402.282C280.416 400.077 275.974 397.893 271.52 395.949C269.5 395.068 265.922 394.256 260.917 393.464C255.929 392.674 249.573 391.911 242.03 391.111C226.918 389.508 207.166 387.767 184.104 385.364C147.718 381.572 128.964 375.344 108.245 369.307C98.5258 366.475 90.3521 363.234 83.8741 360.486C77.7735 357.897 73.238 355.774 70.2934 354.808L69.7252 354.631L69.7029 354.624C61.7999 351.875 43.2949 341.954 19.7863 322.219L19.7518 322.19L19.7225 322.156C10.1119 310.585 5.3776 296 0.531278 281.092L0.503805 281.007L0.507256 280.917C0.996119 269.125 4.14688 250.577 12.0158 233.212C19.8841 215.849 32.5008 199.606 51.9556 192.549L52.0044 192.532L52.0552 192.524C54.0163 192.243 56.4321 192.515 59.2302 193.238C62.0344 193.962 65.2573 195.147 68.8463 196.72C76.0238 199.864 84.7105 204.579 94.5143 210.328C114.114 221.821 138.272 237.501 163.849 253.099C189.442 268.706 216.485 284.25 241.922 295.518C267.375 306.793 291.152 313.754 310.233 312.27L310.564 312.245L310.716 312.54L373.386 434.082L373.511 434.324L373.376 434.561C365.325 448.583 358.956 468.282 354.251 487.447C349.548 506.604 346.516 525.186 345.125 536.946L345.122 536.963L345.119 536.98C340.696 560.327 330.452 619.75 324.846 670.703C324.915 671.632 324.672 673.064 324.184 674.815C323.682 676.618 322.902 678.816 321.864 681.259C319.786 686.143 316.662 692.029 312.62 697.718ZM451.933 158.667L343.506 194.77L342.751 195.021L342.852 194.232C347.491 157.766 357.772 122.41 373.198 89.3657L373.481 88.7613L373.982 89.2015L452.106 157.816L452.761 158.392L451.933 158.667ZM380.869 121.013C375.257 135.797 370.797 150.97 367.371 166.399L414.649 150.662L380.869 121.013ZM426.351 470.774C418.82 462.081 411.728 453.005 405.051 443.491L404.746 443.056L405.198 442.779L520.271 371.951L352.574 330.911L352.288 330.841L352.21 330.558C348.02 315.361 344.992 300.079 343.067 284.737L343.019 284.351L343.38 284.209L512.223 217.761L512.998 217.456L512.902 218.284C511.661 228.987 511.341 239.834 512.11 250.756L512.135 251.114L511.803 251.253L384.625 304.102L546.132 345.848L546.307 345.893L546.412 346.04C555.646 358.869 566.436 370.193 578.32 380.006L578.868 380.458L578.258 380.822L426.985 470.876L426.625 471.09L426.351 470.774ZM530.687 319.788L529.65 319.543L443.697 299.282L442.191 298.928L443.62 298.334L513.639 269.238L514.219 268.996L514.324 269.616C516.576 282.834 520.36 296.078 525.727 308.995C526.937 311.906 528.232 314.78 529.614 317.619L530.213 318.833L530.687 319.788ZM394.62 427.764L394.358 427.347C384.012 410.923 374.928 393.377 367.232 374.857C365.185 369.93 363.273 365.009 361.531 360.017L361.249 359.209L362.091 359.36L472.619 379.225L473.916 379.458L472.79 380.144L395.041 427.508L394.62 427.764ZM625.679 586.668C613.882 584.331 602.235 581.398 590.716 577.815L590.322 577.693L590.368 577.282L604.675 450.983L483.373 523.254L483.085 523.426L482.817 523.224C470.957 514.34 459.529 504.742 448.786 494.394L448.316 493.942L448.875 493.605L605.876 398.982L606.124 398.832L606.377 398.973C617.999 405.454 630.317 410.587 643.036 414.296L643.435 414.412L643.394 414.826L626.274 586.227L626.22 586.774L625.679 586.668ZM677.799 593.171C669.601 592.791 661.458 592.056 653.305 591.129L652.808 591.072L652.865 590.575L672.443 420.938L672.5 420.438L673.001 420.499C681.088 421.503 689.329 421.915 697.609 421.782L698.392 421.769L698.072 422.486C674.676 474.848 666.973 534.061 678.312 592.576L678.433 593.201L677.799 593.171ZM574.277 572.293C548.582 563.044 523.975 550.82 500.994 535.795L500.323 535.356L501.011 534.946L583.897 485.58L584.763 485.064L584.65 486.065L574.944 571.879L574.873 572.507L574.277 572.293ZM561.178 521.717L538.347 535.29C544.952 538.781 551.691 542.045 558.519 545.098L561.178 521.717Z" stroke="#DEA15E" stroke-linecap="round"/>
</svg>
