<svg width="488" height="517" viewBox="0 0 488 517" fill="none" xmlns="http://www.w3.org/2000/svg">
<path d="M56.2317 475.549C51.1665 477.278 46.0347 478.852 40.8448 480.226C40.2628 434.778 25.4298 391.699 -8.95563e-06 356.169C7.85092 354.525 15.4984 352.178 22.8252 349.25L56.2317 475.549ZM156.341 285.073L99.4796 274.634C103.535 265.218 106.618 255.149 108.549 244.631C109.046 241.922 109.452 239.195 109.766 236.451L156.341 285.073ZM240.788 208.612L136.883 206.154L227.75 302.646C224.13 314.088 219.734 325.103 214.607 335.699L79.0354 308.151C84.2839 301.803 89.0028 294.978 93.0543 287.65L197.453 306.817L110.692 212.265C110.108 200.193 107.897 188.44 104.358 177.203L238.485 182.362C239.694 191.035 240.465 199.769 240.788 208.612ZM143.381 11.453L60.4762 111.841C55.7049 107.832 50.5905 104.139 45.225 100.78C81.9794 76.952 111.527 42.2103 128.582 5.17414e-05C133.659 3.63835 138.556 7.48102 143.381 11.453ZM177.843 45.8868L115.802 121.334L224.148 125.462C228.044 136.053 231.366 146.918 233.941 157.978L94.2534 153.366C89.4948 144.373 83.7287 135.956 77.1133 128.284L159.178 25.7479C165.746 32.1287 171.97 38.8263 177.843 45.8868ZM236.509 268.124C235.775 272.119 234.958 276.053 234.004 279.96L171.545 221.396L240.93 223.356C240.733 238.133 239.266 253.105 236.509 268.124ZM204.533 354.883C200.005 362.74 195.105 370.291 189.834 377.537L73.3035 352.82L99.7859 456.578C91.9764 460.842 83.9963 464.742 75.7706 468.169L42.1382 339.739C48.8988 335.758 55.2929 331.187 61.3036 326.118L204.533 354.883Z" fill="#5C2F07"/>
<path d="M151.054 401.279L112.987 391.394L122.623 425.543C132.71 418.184 142.18 410.047 151.054 401.279ZM177.247 393.601C159.175 414.972 137.959 433.296 114.415 448.012L92.9098 371.708L177.247 393.601Z" fill="#5C2F07"/>
<path d="M156.341 285.073L109.766 236.451C109.452 239.195 109.046 241.922 108.549 244.631C106.618 255.149 103.535 265.218 99.4796 274.634L156.341 285.073Z" fill="#5C2F07"/>
<path d="M240.93 223.356L171.545 221.396L234.004 279.96C234.958 276.053 235.775 272.119 236.509 268.124C239.266 253.105 240.733 238.133 240.93 223.356Z" fill="#5C2F07"/>
<path d="M109.766 236.451C109.452 239.195 109.046 241.922 108.549 244.631C106.618 255.149 103.535 265.218 99.4796 274.634L156.341 285.073L109.766 236.451Z" fill="#5C2F07"/>
<path d="M240.93 223.356L171.545 221.396L234.004 279.96C234.958 276.053 235.775 272.119 236.509 268.124C239.266 253.105 240.733 238.133 240.93 223.356Z" fill="#5C2F07"/>
<path d="M194.657 94.9814C191.697 89.6426 188.527 84.4079 185.194 79.2857L172.973 94.134L194.657 94.9814ZM217.746 109.903L144.244 107.091L186.057 56.2273C198.638 72.7805 209.291 90.7838 217.746 109.903Z" fill="#5C2F07"/>
<path d="M436.291 88.3894C428.178 85.2962 417.122 80.2353 405.913 84.6821C396.076 88.5848 388.249 94.5052 387.062 96.7496C362.323 127.034 331.092 160.819 318.569 173.926C307.013 187.839 279.931 216.484 257.899 227.792L247.559 331.541C299.192 359.601 342.107 505.593 363.001 515.245C393.47 522.298 421.815 494.831 432.178 480.217C435.268 468.655 438.266 457.434 436.929 446.131C430.087 423.776 422.383 409.801 418.507 404.814C415.456 401.249 410.014 391.102 399.957 379.446C389.208 366.988 379.816 355.246 358.144 337.748C330.673 315.567 310.366 300.411 306.54 294.622C302.451 288.433 298.724 281.55 301.705 279.684C309.377 274.878 323.948 270.75 330.612 262.429C336.987 254.47 344.063 242.614 351.459 240.103C361.901 236.559 371.208 233.726 382.327 229.242C389.64 226.292 396.223 224.011 402.059 218.698C409.471 211.95 421.643 195.735 447.435 178.787C460.187 170.408 474.543 165.149 483.2 152.762C486 148.755 488.22 143.26 487.137 136.336C486.16 130.087 485.006 125.13 482.311 122.595C476.676 117.297 469.975 113.136 462.799 106.947C452.34 97.9265 444.289 91.4386 436.291 88.3894Z" fill="#5C2F07"/>
</svg>
