<svg width="226" height="232" viewBox="0 0 226 232" fill="none" xmlns="http://www.w3.org/2000/svg">
<path d="M134.916 5.21813C136.32 3.43305 137.784 1.68764 139.314 0.000227183C150.016 16.0456 165.244 27.9569 182.501 34.7334C180.086 37.1318 177.906 39.7332 175.973 42.4674L134.916 5.21813ZM143.26 96.1448L165.914 86.7313C166.644 91.0197 167.872 95.3162 169.613 99.5065C170.062 100.586 170.547 101.651 171.069 102.7L143.26 96.1448ZM130.853 142.865L168.411 119.747L113.781 106.378C112.427 101.469 111.449 96.5321 110.827 91.5762L165.452 70.0783C165.05 73.5502 164.946 77.0696 165.196 80.6138L123.603 97.8973L176.324 111.524C179.319 115.687 182.82 119.36 186.675 122.544L137.734 151.679C135.301 148.87 133.01 145.939 130.853 142.865ZM211.056 190.562L217.39 135.68C220.014 136.006 222.688 136.139 225.374 136.096C217.791 153.066 215.294 172.257 218.969 191.222C216.322 191.099 213.691 190.862 211.056 190.562ZM190.836 186.261L195.502 145.076L155.977 168.625C152.144 165.754 148.453 162.653 144.982 159.31L195.777 128.697C199.547 130.799 203.544 132.464 207.67 133.668L202.131 189.121C198.32 188.366 194.558 187.419 190.836 186.261ZM118.634 120.691C117.972 119.099 117.355 117.51 116.793 115.898L152.552 122.325L127.398 137.649C124.055 132.343 121.12 126.674 118.634 120.691ZM109.984 82.4207C109.782 78.5779 109.782 74.7581 109.986 70.9614L157.178 52.8525L123.792 22.0292C125.587 18.708 127.528 15.4769 129.665 12.3573L171.294 50.3128C169.807 53.2913 168.586 56.3951 167.616 59.5875L109.984 82.4207Z" fill="#BC6C25"/>
<path d="M118.309 53.5543L134.144 48.2833L122.828 38.3511C120.936 43.3001 119.444 48.3836 118.309 53.5543ZM110.757 62.336C112.256 50.5549 115.578 39.1322 120.562 28.4565L145.837 50.6555L110.757 62.336Z" fill="#BC6C25"/>
<path d="M143.26 96.1448L171.069 102.7C170.547 101.651 170.062 100.586 169.613 99.5065C167.872 95.3162 166.644 91.0197 165.914 86.7313L143.26 96.1448Z" fill="#BC6C25"/>
<path d="M127.398 137.649L152.552 122.325L116.793 115.898C117.355 117.51 117.972 119.099 118.634 120.691C121.12 126.674 124.055 132.343 127.398 137.649Z" fill="#BC6C25"/>
<path d="M171.069 102.7C170.547 101.651 170.062 100.586 169.613 99.5065C167.872 95.3162 166.644 91.0197 165.914 86.7313L143.26 96.1448L171.069 102.7Z" fill="#BC6C25"/>
<path d="M127.398 137.649L152.552 122.325L116.793 115.898C117.355 117.51 117.972 119.099 118.634 120.691C121.12 126.674 124.055 132.343 127.398 137.649Z" fill="#BC6C25"/>
<path d="M173.514 172.666C175.801 173.883 178.138 175.015 180.507 176.069L181.429 167.961L173.514 172.666ZM161.849 172.685L188.665 156.714L185.525 184.477C177.223 181.489 169.273 177.54 161.849 172.685Z" fill="#BC6C25"/>
<path d="M89.0136 230.809C92.6161 230.037 97.7208 229.285 100.684 225.114C103.285 221.453 104.704 217.538 104.609 216.465C106.423 199.971 109.74 180.732 111.172 173.174C112.073 165.553 115.1 149.101 120.332 139.988L100.056 100.665C75.1952 102.599 26.206 60.5344 16.5388 61.923C4.06353 66.4477 0.31497 82.7711 8.43286e-05 90.3672C1.56998 95.1964 3.09373 99.8835 6.17974 103.599C13.7773 109.977 19.7471 113.173 22.2785 114.054C24.1878 114.619 28.4681 116.974 34.74 118.802C41.4435 120.755 47.4984 122.766 59.2542 123.991C74.156 125.544 84.8849 126.251 87.5838 127.428C90.4687 128.687 93.3847 130.277 92.7548 131.63C91.1331 135.112 86.899 139.946 86.4479 144.447C86.0163 148.753 86.2348 154.608 84.1814 157.21C81.2826 160.882 78.6235 164.04 75.7006 168.204C73.7782 170.943 71.9614 173.275 71.1105 176.514C70.0299 180.628 69.4411 189.211 64.1722 201.2C61.5673 207.128 57.671 212.315 57.4496 218.724C57.378 220.797 57.8563 223.266 59.8406 225.481C61.6314 227.48 63.1869 228.978 64.7316 229.258C67.9614 229.843 71.3077 229.777 75.2915 230.323C81.0979 231.12 85.4623 231.57 89.0136 230.809Z" fill="#BC6C25"/>
</svg>
