<svg width="194" height="194" viewBox="0 0 194 194" fill="none" xmlns="http://www.w3.org/2000/svg">
<rect width="194" height="194" rx="97" fill="#AB601D"/>
<path d="M59.6222 146.728C58.7062 147.233 57.7722 147.71 56.8201 148.151C55.1648 139.425 50.8475 131.639 44.7476 125.666C46.2024 125.083 47.5943 124.371 48.9048 123.559L59.6222 146.728ZM72.4176 106.676L61.1214 106.598C61.582 104.648 61.8333 102.606 61.8477 100.516C61.8514 99.978 61.8369 99.4395 61.8041 98.9009L72.4176 106.676ZM86.0711 89.0945L65.9933 92.1499L86.7555 107.632C86.4475 109.957 85.9756 112.226 85.349 114.439L58.3256 113.742C59.12 112.342 59.7962 110.868 60.327 109.321L81.0672 109.464L61.1611 94.2154C60.6386 91.9123 59.8141 89.7257 58.7515 87.6835L84.7366 84.1213C85.2638 85.7492 85.7086 87.4039 86.0711 89.0945ZM60.632 54.4633L48.0877 76.5962C47.0334 75.9867 45.9239 75.4498 44.7773 74.9856C51.0408 69.1523 55.5467 61.4636 57.3952 52.762C58.4957 53.2897 59.5685 53.8628 60.632 54.4633ZM68.4327 59.919L59.0563 76.544L80.0454 73.6591C81.1547 75.5648 82.1631 77.5427 83.0341 79.5836L55.9976 83.4397C54.7765 81.8709 53.3811 80.4469 51.8476 79.1954L64.1572 56.6775C65.6377 57.6824 67.0629 58.7598 68.4327 59.919ZM87.2687 100.691C87.2632 101.485 87.2396 102.27 87.1886 103.054L73.1808 93.9058L86.5991 91.9269C87.0631 94.7771 87.2893 97.7078 87.2687 100.691ZM84.062 118.472C83.4574 120.138 82.771 121.757 82.0027 123.331L58.7395 122.532L67.359 141.599C66.001 142.684 64.5979 143.706 63.1314 144.645L52.2982 121.073C53.4639 120.077 54.5391 118.981 55.5236 117.801L84.062 118.472Z" fill="#FEFADF"/>
<path d="M75.3465 129.216L67.6857 128.607L70.6996 134.851C72.3907 133.092 73.9367 131.205 75.3465 129.216ZM80.1261 126.849C77.3743 131.575 73.914 135.822 69.8831 139.453L63.1537 125.501L80.1261 126.849Z" fill="#FEFADF"/>
<path d="M72.4172 106.676L61.8037 98.9011C61.8365 99.4397 61.851 99.9782 61.8473 100.517C61.8329 102.606 61.5816 104.648 61.121 106.598L72.4172 106.676Z" fill="#FEFADF"/>
<path d="M86.5991 91.9272L73.1808 93.9062L87.1885 103.055C87.2395 102.27 87.2632 101.486 87.2687 100.692C87.2892 97.7081 87.063 94.7774 86.5991 91.9272Z" fill="#FEFADF"/>
<path d="M61.8037 98.9011C61.8365 99.4397 61.851 99.9782 61.8473 100.517C61.8329 102.606 61.5816 104.648 61.121 106.598L72.4172 106.676L61.8037 98.9011Z" fill="#FEFADF"/>
<path d="M86.5991 91.9272L73.1808 93.9062L87.1885 103.055C87.2395 102.27 87.2632 101.486 87.2687 100.692C87.2892 97.7081 87.063 94.7774 86.5991 91.9272Z" fill="#FEFADF"/>
<path d="M73.3354 68.7952C72.5844 67.8684 71.7968 66.9688 70.9815 66.0963L69.134 69.3685L73.3354 68.7952ZM78.285 70.8825L64.0457 72.8375L70.3644 61.6299C73.3475 64.388 76.0089 67.4905 78.285 70.8825Z" fill="#FEFADF"/>
<path d="M119.609 59.3184C117.943 58.9987 115.644 58.4003 113.638 59.6366C111.877 60.7217 110.572 62.1267 110.42 62.5989C106.688 69.2667 101.826 76.8284 99.8612 79.7757C98.1098 82.8454 93.8714 89.2774 90.0157 92.2016L91.5492 112.517C102.438 116.163 115.654 142.799 120.002 143.947C126.105 144.269 130.626 138.021 132.124 134.857C132.326 132.527 132.522 130.266 131.881 128.136C129.805 124.067 127.848 121.64 126.933 120.812C126.225 120.229 124.833 118.461 122.502 116.56C120.01 114.528 117.804 112.587 113.04 109.956C107 106.621 102.578 104.394 101.645 103.41C100.648 102.358 99.6972 101.16 100.207 100.699C101.52 99.5141 104.184 98.2249 105.184 96.3974C106.14 94.6493 107.099 92.1276 108.437 91.3933C110.326 90.3568 112.021 89.4955 114.008 88.255C115.315 87.439 116.505 86.7766 117.447 85.5559C118.645 84.0058 120.436 80.4721 124.824 76.335C126.993 74.2896 129.577 72.79 130.822 70.1124C131.225 69.2463 131.465 68.1135 131.022 66.8179C130.622 65.6487 130.231 64.7339 129.627 64.3378C128.362 63.5095 126.932 62.9364 125.34 61.9892C123.022 60.6086 121.252 59.6335 119.609 59.3184Z" fill="#FEFADF"/>
<path d="M118.125 32.9409C134.8 33.1521 148.253 46.7351 148.253 63.4602V159.504H71.7439V148.109H76.0169V155.231H143.98V63.4602C143.98 48.9634 132.228 37.2113 117.731 37.2112H76.0169V54.1004H71.7439V32.9382H117.731L118.125 32.9409Z" fill="#FEFADF"/>
</svg>
