<svg width="14" height="14" viewBox="0 0 14 14" fill="none" xmlns="http://www.w3.org/2000/svg">
<path d="M11.3569 2.08048C10.7581 1.47586 10.045 0.996458 9.25906 0.670209C8.47315 0.34396 7.63017 0.177392 6.77923 0.180211C3.21377 0.180211 0.307857 3.08613 0.307857 6.65159C0.307857 7.79436 0.608243 8.90449 1.16984 9.88401L0.255615 13.2405L3.68394 12.3393C4.63082 12.8552 5.69523 13.1295 6.77923 13.1295C10.3447 13.1295 13.2506 10.2236 13.2506 6.65812C13.2506 4.92763 12.578 3.30162 11.3569 2.08048ZM6.77923 12.0324C5.81277 12.0324 4.8659 11.7712 4.03657 11.2815L3.84067 11.1639L1.80326 11.6994L2.34526 9.71423L2.21466 9.51179C1.67759 8.65442 1.39247 7.66329 1.39186 6.65159C1.39186 3.6869 3.80802 1.27075 6.7727 1.27075C8.20934 1.27075 9.56108 1.83234 10.5733 2.85104C11.0745 3.34986 11.4717 3.94324 11.7419 4.59677C12.0121 5.25029 12.1498 5.95096 12.147 6.65812C12.1601 9.62281 9.74392 12.0324 6.77923 12.0324ZM9.73086 8.00986C9.56761 7.9315 8.77093 7.53969 8.62727 7.48092C8.47707 7.42868 8.37259 7.40256 8.26158 7.55928C8.15057 7.72253 7.84365 8.08822 7.75223 8.1927C7.6608 8.30372 7.56285 8.31678 7.3996 8.23188C7.23634 8.15352 6.71393 7.97721 6.1001 7.42868C5.61687 6.99769 5.29689 6.46874 5.19894 6.30549C5.10752 6.14224 5.18588 6.05735 5.27077 5.97245C5.3426 5.90062 5.43402 5.78308 5.51239 5.69166C5.59075 5.60023 5.6234 5.5284 5.67564 5.42392C5.72788 5.31291 5.70176 5.22149 5.66258 5.14312C5.6234 5.06476 5.29689 4.26808 5.16629 3.94158C5.03568 3.62813 4.89855 3.66731 4.8006 3.66078H4.48715C4.37614 3.66078 4.20636 3.69996 4.05616 3.86321C3.9125 4.02647 3.49457 4.41828 3.49457 5.21496C3.49457 6.01163 4.07575 6.78219 4.15411 6.88667C4.23248 6.99769 5.29689 8.63022 6.91637 9.32895C7.30165 9.49873 7.60203 9.59669 7.83712 9.66852C8.2224 9.79259 8.57503 9.773 8.85582 9.73382C9.16927 9.68811 9.81575 9.34201 9.94636 8.96326C10.0835 8.58451 10.0835 8.26454 10.0378 8.1927C9.99207 8.12087 9.89411 8.08822 9.73086 8.00986Z" fill="#FEFADF" stroke="#FEFADF" stroke-width="0.36"/>
</svg>
