<svg width="14" height="12" viewBox="0 0 14 12" fill="none" xmlns="http://www.w3.org/2000/svg">
<path d="M3.65 3.64986L5.41518 4.69384C6.44416 5.30223 6.85516 5.30223 7.88474 4.69384L9.64991 3.64986M0.659681 6.63517C0.69868 8.47414 0.71848 9.39393 1.39707 10.0749C2.07566 10.7565 3.02005 10.7799 4.90942 10.8273C6.0734 10.8573 7.22658 10.8573 8.39057 10.8273C10.2799 10.7799 11.2243 10.7565 11.9029 10.0749C12.5815 9.39393 12.6013 8.47414 12.6409 6.63517C12.6529 6.04358 12.6529 5.45559 12.6409 4.864C12.6013 3.02502 12.5815 2.10524 11.9029 1.42425C11.2243 0.742659 10.2799 0.719259 8.39057 0.67186C7.23037 0.642583 6.06962 0.642583 4.90942 0.67186C3.02005 0.719259 2.07566 0.742659 1.39707 1.42425C0.71848 2.10524 0.69868 3.02502 0.659081 4.864C0.64645 5.45432 0.64705 6.04485 0.659681 6.63517Z" stroke="#FEFADF" stroke-width="1.3" stroke-linecap="round" stroke-linejoin="round"/>
</svg>
