<svg fill="none" height="100%" width="100%" viewBox="0 0 218 576" xmlns:xlink="http://www.w3.org/1999/xlink" xmlns="http://www.w3.org/2000/svg"><g id="i0"><g transform="translate(108.87,283.81)"><animateTransform repeatCount="indefinite" type="translate" attributeName="transform" dur="2s" begin="0s" calcMode="spline" values="108.87 283.81; 108.87 150.74; 108.87 283.81" keyTimes="0; 0.5; 1" keySplines="0.33 1 0.68 1; 0.33 1 0.68 1" fill="freeze" /><g transform="translate(-47.16,-251.46)"><animateTransform repeatCount="indefinite" type="translate" attributeName="transform" dur="2s" begin="0s" calcMode="spline" values="-47.16 -251.46; -47.16 -118.39; -47.16 -251.46" keyTimes="0; 0.5; 1" keySplines="0.33 1 0.68 1; 0.33 1 0.68 1" fill="freeze" /><path d="M47.16,0C66.02,0,81.31,15.29,81.31,34.15C81.31,50.82,69.36,64.71,53.56,67.71C53.56,67.71,53.56,481.06,53.56,481.06C53.56,481.06,83.38,451.24,83.38,451.24C85.88,448.74,89.94,448.74,92.44,451.24C94.94,453.74,94.94,457.8,92.44,460.3C92.44,460.3,51.69,501.05,51.69,501.05C49.19,503.55,45.13,503.55,42.63,501.05C42.63,501.05,1.88,460.3,1.88,460.3C-0.62,457.8,-0.62,453.74,1.88,451.24C4.38,448.74,8.43,448.74,10.93,451.24C10.93,451.24,40.75,481.06,40.75,481.06C40.75,481.06,40.75,67.71,40.75,67.71C24.95,64.71,13,50.82,13,34.15C13,15.29,28.3,0,47.16,0C47.16,0,47.16,0,47.16,0Z" fill="#dea15e"><animate repeatCount="indefinite" attributeName="d" dur="2s" begin="0s" calcMode="spline" values="M47.16,0C66.02,0,81.31,15.29,81.31,34.15C81.31,50.82,69.36,64.71,53.56,67.71C53.56,67.71,53.56,481.06,53.56,481.06C53.56,481.06,83.38,451.24,83.38,451.24C85.88,448.74,89.94,448.74,92.44,451.24C94.94,453.74,94.94,457.8,92.44,460.3C92.44,460.3,51.69,501.05,51.69,501.05C49.19,503.55,45.13,503.55,42.63,501.05C42.63,501.05,1.88,460.3,1.88,460.3C-0.62,457.8,-0.62,453.74,1.88,451.24C4.38,448.74,8.43,448.74,10.93,451.24C10.93,451.24,40.75,481.06,40.75,481.06C40.75,481.06,40.75,67.71,40.75,67.71C24.95,64.71,13,50.82,13,34.15C13,15.29,28.3,0,47.16,0C47.16,0,47.16,0,47.16,0Z; M47.16,0C66.02,0,81.31,15.29,81.31,34.15C81.31,50.82,69.36,64.71,53.56,67.71C53.56,67.71,53.56,214.92,53.56,214.92C53.56,214.92,83.38,185.09,83.38,185.09C85.88,182.59,89.94,182.59,92.44,185.09C94.94,187.59,94.94,191.65,92.44,194.15C92.44,194.15,51.69,234.9,51.69,234.9C49.19,237.4,45.13,237.4,42.63,234.9C42.63,234.9,1.88,194.15,1.88,194.15C-0.62,191.65,-0.62,187.59,1.88,185.09C4.38,182.59,8.43,182.59,10.93,185.09C10.93,185.09,40.75,214.92,40.75,214.92C40.75,214.92,40.75,67.71,40.75,67.71C24.95,64.71,13,50.82,13,34.15C13,15.29,28.3,0,47.16,0C47.16,0,47.16,0,47.16,0Z; M47.16,0C66.02,0,81.31,15.29,81.31,34.15C81.31,50.82,69.36,64.71,53.56,67.71C53.56,67.71,53.56,481.05,53.56,481.05C53.56,481.05,83.38,451.23,83.38,451.23C85.88,448.73,89.94,448.73,92.44,451.23C94.94,453.73,94.94,457.79,92.44,460.29C92.44,460.29,51.69,501.04,51.69,501.04C49.19,503.54,45.13,503.54,42.63,501.04C42.63,501.04,1.88,460.29,1.88,460.29C-0.62,457.79,-0.62,453.73,1.88,451.23C4.38,448.73,8.43,448.73,10.93,451.23C10.93,451.23,40.75,481.05,40.75,481.05C40.75,481.05,40.75,67.71,40.75,67.71C24.95,64.71,13,50.82,13,34.15C13,15.29,28.3,0,47.16,0C47.16,0,47.16,0,47.16,0Z" keyTimes="0; 0.5; 1" keySplines="0.33 1 0.68 1; 0.33 1 0.68 1" fill="freeze" /></path></g></g></g></svg>