<svg width="132" height="67" viewBox="0 0 132 67" fill="none" xmlns="http://www.w3.org/2000/svg">
<path d="M-0.000108297 27.1294L9.17833 0.000197449H17.8694L27.1291 27.1294H20.4686L18.438 20.9563H15.8794C11.3714 20.9563 8.89404 20.9563 7.51322 25.5049L7.02587 27.1294H-0.000108297ZM13.5239 5.80779L12.2243 10.194C10.5592 15.8797 7.59444 19.8191 6.21362 21.2H7.7975C9.13772 17.5042 11.7775 15.5142 16.651 15.433L13.5239 5.80779ZM34.1284 8.97558C34.4939 6.90433 36.1184 5.40167 38.7989 5.40167C44.5658 5.40167 44.4846 14.905 38.7989 14.905C36.5246 14.905 34.697 13.6866 34.697 11.2499H34.0878L34.1284 27.1294H27.5086V5.84841H33.6817L34.1284 8.97558ZM42.9797 8.04149H43.3452C45.254 8.04149 46.2287 7.06679 46.2287 5.15799V0.528161H52.808V8.04149H57.3972V13.5648H52.808V18.4383C52.808 19.8597 53.9451 21.4842 55.4884 21.4842C56.1382 21.4842 56.5849 21.2 57.1941 20.9157V27.1294C56.1382 27.4137 55.1635 27.5355 54.1482 27.5355C49.6808 27.5355 46.2287 25.3424 46.2287 19.4942V13.5648H42.9797V8.04149ZM16.448 50.6414H15.9606V45.0774H28.713V59.1294H22.5399V50.6414H19.697C20.7935 51.3318 21.3621 52.5502 21.3621 53.8091C21.3621 57.708 16.9759 59.4949 13.5239 59.4949C5.11708 59.4949 0.812143 52.9563 0.812143 46.174C0.812143 38.9856 5.68565 31.5941 15.7576 31.5941C22.7835 31.5941 27.8601 34.5588 28.713 40.4882H21.6058C20.9966 38.2951 18.438 36.9955 15.6763 36.9955C11.8588 36.9955 7.67567 39.5541 7.67567 45.8085C7.67567 49.9916 9.94997 54.0528 14.458 54.0528C18.7223 54.0528 18.7629 50.6414 16.448 50.6414ZM46.1218 54.0528H45.5938C46.0406 57.7486 42.6291 59.5355 39.8675 59.5355C33.1258 59.5355 29.7549 54.0122 29.7549 48.4483C29.7549 42.925 33.1258 37.4017 39.8675 37.4017C43.1571 37.4017 45.1065 38.5388 46.5279 39.8384L46.9341 37.8484H53.0666V59.1294H46.8934L46.1218 54.0528ZM36.6591 48.4483C36.6591 51.3318 38.5273 53.6873 41.5732 53.6873C44.6598 53.6873 46.4873 51.3318 46.4873 48.4483C46.4873 45.5648 44.6598 43.2093 41.5732 43.2093C38.5273 43.2093 36.6591 45.5648 36.6591 48.4483ZM54.9443 59.1294L54.9849 30.7006L61.5641 30.7412L61.5235 59.17L54.9443 59.1294ZM63.4221 59.1294L63.4627 30.7006L70.042 30.7412L70.0014 59.17L63.4221 59.1294ZM82.0125 37.4017C89.4446 37.4017 93.4247 42.3564 92.4906 49.9916H77.5451C78.0731 53.0375 80.185 54.0528 82.0938 54.0528C83.7589 54.0528 85.2615 53.3218 85.4646 52.5095H92.1657C90.4193 57.7892 85.627 59.5355 82.3374 59.5355C76.2455 59.5355 71.2908 56.2053 71.2908 48.4483C71.2908 41.3411 75.9206 37.4017 82.0125 37.4017ZM77.667 45.9303H86.3987V45.6866C86.3987 43.656 84.4899 42.3564 82.3374 42.3564C79.8601 42.3564 78.2356 43.5748 77.667 45.9303ZM100.522 40.9756C100.888 38.9043 102.512 37.4017 105.192 37.4017C110.959 37.4017 110.878 46.905 105.192 46.905C102.918 46.905 101.091 45.6866 101.091 43.2499H100.481L100.522 59.1294H93.9022V37.8484H100.075L100.522 40.9756ZM112.988 66.7239L111.566 60.5914C113.435 60.5914 116.887 58.9669 117.536 56.9769L109.373 37.8484H116.481L119.851 48.895H120.379L123.71 37.8484H130.817L121.841 59.0482C119.608 64.3684 117.415 66.7239 112.988 66.7239Z" fill="#FEFADF"/>
<line x1="63.4861" y1="26.041" x2="131.284" y2="26.041" stroke="#FEFADF" stroke-width="2.75789"/>
<line x1="63.4861" y1="17.767" x2="113.305" y2="17.767" stroke="#FEFADF" stroke-width="2.75789"/>
</svg>
