<svg width="95" height="43" viewBox="0 0 95 43" fill="none" xmlns="http://www.w3.org/2000/svg">
<g clip-path="url(#clip0_163_2573)">
<path d="M-0.206163 20L6.44996 0.326155H12.7527L19.4677 20H14.6376L13.165 15.5233H11.3095C8.04036 15.5233 6.2438 15.5233 5.24243 18.8219L4.88901 20H-0.206163ZM9.60131 4.53777L8.65885 7.71857C7.45132 11.8418 5.30134 14.6987 4.29997 15.7H5.44859C6.42051 13.0199 8.33488 11.5768 11.8691 11.5179L9.60131 4.53777ZM24.5435 6.83502C24.8086 5.33297 25.9867 4.24325 27.9305 4.24325C32.1127 4.24325 32.0537 11.135 27.9305 11.135C26.2812 11.135 24.9559 10.2514 24.9559 8.48432H24.5141L24.5435 20H19.7429V4.56722H24.2196L24.5435 6.83502ZM30.9624 6.15762H31.2275C32.6117 6.15762 33.3186 5.45078 33.3186 4.06654V0.709029H38.0898V6.15762H41.4178V10.1631H38.0898V13.6973C38.0898 14.7281 38.9144 15.9062 40.0336 15.9062C40.5048 15.9062 40.8288 15.7 41.2706 15.4939V20C40.5048 20.2062 39.798 20.2945 39.0617 20.2945C35.822 20.2945 33.3186 18.7041 33.3186 14.463V10.1631H30.9624V6.15762ZM11.7218 36.8446H11.3684V32.8097H20.6163V43H16.1396V36.8446H14.078C14.8732 37.3452 15.2855 38.2288 15.2855 39.1418C15.2855 41.9692 12.1047 43.2651 9.60131 43.2651C3.50477 43.2651 0.382874 38.5233 0.382874 33.6049C0.382874 28.3919 3.9171 23.0316 11.2212 23.0316C16.3163 23.0316 19.9978 25.1816 20.6163 29.4816H15.4622C15.0205 27.8912 13.165 26.9487 11.1623 26.9487C8.39378 26.9487 5.36024 28.8042 5.36024 33.3398C5.36024 36.3733 7.00954 39.3185 10.2787 39.3185C13.3711 39.3185 13.4006 36.8446 11.7218 36.8446ZM33.241 39.3185H32.8582C33.1821 41.9986 30.7082 43.2945 28.7054 43.2945C23.8164 43.2945 21.3719 39.2891 21.3719 35.2542C21.3719 31.2487 23.8164 27.2433 28.7054 27.2433C31.091 27.2433 32.5047 28.0679 33.5355 29.0104L33.8301 27.5672H38.2773V43H33.8006L33.241 39.3185ZM26.3787 35.2542C26.3787 37.3452 27.7335 39.0535 29.9424 39.0535C32.1808 39.0535 33.5061 37.3452 33.5061 35.2542C33.5061 33.1631 32.1808 31.4549 29.9424 31.4549C27.7335 31.4549 26.3787 33.1631 26.3787 35.2542ZM39.639 43L39.6684 22.3837L44.4396 22.4131L44.4102 43.0295L39.639 43ZM45.7871 43L45.8165 22.3837L50.5877 22.4131L50.5583 43.0295L45.7871 43ZM59.2687 27.2433C64.6583 27.2433 67.5446 30.8364 66.8672 36.3733H56.029C56.4118 38.5822 57.9433 39.3185 59.3276 39.3185C60.5351 39.3185 61.6248 38.7884 61.7721 38.1993H66.6316C65.3652 42.0281 61.8899 43.2945 59.5043 43.2945C55.0865 43.2945 51.4934 40.8795 51.4934 35.2542C51.4934 30.1001 54.8509 27.2433 59.2687 27.2433ZM56.1173 33.4281H62.4495V33.2514C62.4495 31.7788 61.0652 30.8364 59.5043 30.8364C57.7077 30.8364 56.5296 31.7199 56.1173 33.4281ZM72.6916 29.835C72.9566 28.333 74.1347 27.2433 76.0785 27.2433C80.2607 27.2433 80.2018 34.135 76.0785 34.135C74.4292 34.135 73.1039 33.2514 73.1039 31.4843H72.6621L72.6916 43H67.8909V27.5672H72.3676L72.6916 29.835ZM81.7317 48.5075L80.7009 44.0603C82.0557 44.0603 84.5591 42.8822 85.0303 41.4391L79.1105 27.5672H84.2645L86.709 35.5781H87.0919L89.507 27.5672H94.661L88.1522 42.9411C86.5323 46.7993 84.9419 48.5075 81.7317 48.5075Z" fill="#FEFADF"/>
<line x1="45.8335" y1="18.7908" x2="95" y2="18.7908" stroke="#FEFADF" stroke-width="2"/>
<line x1="45.8335" y1="12.7908" x2="81.9619" y2="12.7908" stroke="#FEFADF" stroke-width="2"/>
</g>
<defs>
<clipPath id="clip0_163_2573">
<rect width="95" height="43" fill="white"/>
</clipPath>
</defs>
</svg>
